# xmcd CD database file
#
# Track frame offsets:
#	150
#	4627
#	21847
#	41372
#	60432
#	68547
#	92495
#	110305
#	128747
#	137987
#	157047
#	172172
#	186277
#	212217
#	230865
#	249057
#	251720
#	272442
#
# Disc length: 3868 seconds
#
# Revision: 7
# Processed by: cddbd v1.5.2PL0 Copyright (c) Steve Scherf et al.
# Submitted via: CDex 1.70beta2
#
DISCID=f20f1a12
DTITLE=Mase - Double Up
DYEAR=1999
DGENRE=Hip-Hop
TTITLE0=Intro
TTITLE1=Stay Out Of My Way
TTITLE2=Get Ready
TTITLE3=Make Me Cry
TTITLE4=Award Show
TTITLE5=Same Niggas
TTITLE6=No Matter What
TTITLE7=If You Want To Party
TTITLE8=Jail Visti
TTITLE9=Fuck Me, Fuck You
TTITLE10=Do It Again
TTITLE11=Another Story To Tell
TTITLE12=Blood Is Thicker
TTITLE13=You Aint't Smart
TTITLE14=All I Ever Wanted
TTITLE15=Mad Rapper
TTITLE16=From Scratch
TTITLE17=Gettin' It
EXTD=YEAR: 1999
EXTT0=
EXTT1=
EXTT2=
EXTT3=
EXTT4=
EXTT5=
EXTT6=
EXTT7=
EXTT8=
EXTT9=
EXTT10=
EXTT11=
EXTT12=
EXTT13=
EXTT14=
EXTT15=
EXTT16=
EXTT17=
PLAYORDER=
